# xmcd
#
# Track frame offsets:
#	150
#	22661
#	48959
#	73194
#	99315
#	113497
#	128882
#	149990
#	171280
#
# Disc length: 2661 seconds
#
# Revision: 1
# Processed by: cddbd v1.5.1PL0 Copyright (c) Steve Scherf et al.
# Submitted via: EasyCDDAExtractor 8.2.1.1
#
DISCID=790a6309
DTITLE=Olivia Newton-John - Banks Of The Ohio
DYEAR=1971
DGENRE=Country
TTITLE0=Take Me Home Country Road
TTITLE1=Me And Bobby McGee
TTITLE2=Help Me Make It Through The Night
TTITLE3=Angel In The Morning
TTITLE4=Just A Little Too Much
TTITLE5=A Love Song
TTITLE6=If Not For You
TTITLE7=Banks Of The Ohio
TTITLE8=If I Could Read Your Mind
EXTD=
EXTT0=
EXTT1=
EXTT2=
EXTT3=
EXTT4=
EXTT5=
EXTT6=
EXTT7=
EXTT8=
PLAYORDER=
